# xmcd
#
# Track frame offsets:
#	150
#	16497
#	52207
#	69232
#
# Disc length: 1410 seconds
#
# Revision: 1
# Processed by: cddbd v1.4PL0 Copyright (c) Steve Scherf et al.
# Submitted via: audiograbber 1.81.02
#
DISCID=31058004
DTITLE=Run-D.M.C. vs Jason Nevins - It's Tricky
DYEAR=1986
DGENRE=Hip-Hop
TTITLE0=Jason's Hocus Pocus Radio Mix
TTITLE1=Jason's Hocus Pocus Club Mix
TTITLE2=Jason's Slo-Pocus Radio Mix
TTITLE3=Jason's Slo-Pocus Club Mix
EXTD=
EXTT0=
EXTT1=
EXTT2=
EXTT3=
PLAYORDER=
